<svg xmlns="http://www.w3.org/2000/svg" viewBox="0 0 512 512" role="img" aria-label="Cash On Credit Card icon">
  <rect width="512" height="512" rx="108" fill="#0f766e"/>
  <rect x="80" y="118" width="352" height="214" rx="42" fill="#ccfbf1"/>
  <rect x="112" y="166" width="148" height="28" rx="14" fill="#0f766e"/>
  <rect x="112" y="218" width="208" height="28" rx="14" fill="#99f6e4"/>
  <path d="M270 338c0-48.6 39.4-88 88-88h21v43h-21c-24.9 0-45 20.1-45 45s20.1 45 45 45h21v43h-21c-48.6 0-88-39.4-88-88z" fill="#134e4a"/>
  <path d="M226 384c20 0 35.4-10 35.4-27.3 0-13.8-8.2-21.4-29.4-26.2l-12.1-2.8c-10.2-2.4-14.6-5.3-14.6-12.1 0-7.7 6.8-12.7 18.1-12.7 12.1 0 20 4.2 27.3 11l16-19.3c-10.1-9.6-22.3-14.5-37-16v-17.3h-19v17c-23.9 2.6-39.7 18.4-39.7 40.8 0 20.4 13.1 32.8 35.1 37.8l11.6 2.7c10.7 2.4 14.7 5 14.7 11.2 0 7.9-7.4 12.8-20.1 12.8-13.9 0-25.8-5.9-34.1-14.4L181 389c11.9 11.8 27.2 18 44.7 19.5V427h19v-18.7z" fill="#134e4a"/>
</svg>
