<svg xmlns="http://www.w3.org/2000/svg" viewBox="0 0 192 192" role="img" aria-label="Cash On Credit Card icon">
  <rect width="192" height="192" rx="40" fill="#0f766e"/>
  <rect x="30" y="44" width="132" height="80" rx="16" fill="#ccfbf1"/>
  <rect x="42" y="62" width="56" height="10" rx="5" fill="#0f766e"/>
  <rect x="42" y="82" width="78" height="10" rx="5" fill="#99f6e4"/>
  <path d="M101 126c0-18.2 14.8-33 33-33h8v16h-8c-9.4 0-17 7.6-17 17s7.6 17 17 17h8v16h-8c-18.2 0-33-14.8-33-33z" fill="#134e4a"/>
  <path d="M84 143c7.5 0 13.3-3.8 13.3-10.2 0-5.2-3.1-8-11.1-9.8l-4.6-1.1c-3.9-.9-5.5-2-5.5-4.5 0-2.9 2.6-4.7 6.8-4.7 4.5 0 7.5 1.6 10.3 4.1l6-7.2c-3.8-3.6-8.4-5.4-13.9-6v-6.5h-7.1v6.4c-9 .9-14.9 6.9-14.9 15.3 0 7.7 4.9 12.3 13.2 14.2l4.4 1c4 .9 5.5 1.9 5.5 4.2 0 3-2.8 4.8-7.6 4.8-5.2 0-9.7-2.2-12.8-5.4l-6.2 7.3c4.5 4.4 10.2 6.8 16.8 7.3v7.1h7.1v-7z" fill="#134e4a"/>
</svg>
