<svg xmlns="http://www.w3.org/2000/svg" viewBox="0 0 64 64" role="img" aria-label="Cash On Credit Card">
  <rect width="64" height="64" rx="14" fill="#0f766e"/>
  <rect x="10" y="15" width="44" height="28" rx="6" fill="#ccfbf1"/>
  <rect x="14" y="21" width="19" height="4" rx="2" fill="#0f766e"/>
  <rect x="14" y="29" width="26" height="4" rx="2" fill="#99f6e4"/>
  <path d="M34 42c0-6.1 4.9-11 11-11h2v6h-2a5 5 0 0 0 0 10h2v6h-2c-6.1 0-11-4.9-11-11z" fill="#134e4a"/>
  <path d="M27 47.5c2.4 0 4.2-1.2 4.2-3.2 0-1.6-1-2.5-3.5-3.1l-1.5-.4c-1.2-.3-1.7-.6-1.7-1.4 0-.9.8-1.5 2.1-1.5 1.4 0 2.3.5 3.2 1.3l1.9-2.3c-1.2-1.1-2.6-1.7-4.3-1.9V33h-2.2v2c-2.8.4-4.6 2.2-4.6 4.8 0 2.4 1.5 3.8 4.1 4.4l1.4.4c1.2.3 1.7.6 1.7 1.3 0 .9-.9 1.5-2.4 1.5-1.6 0-3-.7-4-1.7l-1.9 2.3c1.4 1.4 3.2 2.1 5.2 2.3V53h2.2v-2.2z" fill="#134e4a"/>
</svg>
